<?xml version="1.0" standalone="no"?>
<!DOCTYPE svg PUBLIC "-//W3C//DTD SVG 20010904//EN"
 "http://www.w3.org/TR/2001/REC-SVG-20010904/DTD/svg10.dtd">
<svg version="1.0" xmlns="http://www.w3.org/2000/svg"
 width="260.000000pt" height="260.000000pt" viewBox="0 0 260.000000 260.000000"
 preserveAspectRatio="xMidYMid meet">
<metadata>
Created by potrace 1.14, written by Peter Selinger 2001-2017
</metadata>
<g transform="translate(0.000000,260.000000) scale(0.100000,-0.100000)"
fill="#000000" stroke="none">
<path d="M310 2591 c-97 -30 -212 -126 -256 -213 -55 -109 -54 -88 -54 -1078
0 -1016 -2 -979 66 -1091 44 -74 111 -133 194 -173 l65 -31 975 0 975 0 68 32
c95 45 175 125 218 216 l34 72 0 981 0 980 -34 68 c-46 90 -126 170 -210 210
l-66 31 -975 2 c-536 1 -986 -2 -1000 -6z"/>
</g>
</svg>
