<?xml version="1.0" encoding="UTF-8"?>
<!DOCTYPE svg PUBLIC "-//W3C//DTD SVG 1.1//EN" "http://www.w3.org/Graphics/SVG/1.1/DTD/svg11.dtd">
<svg xmlns="http://www.w3.org/2000/svg" version="1.1" width="260px" height="260px" style="shape-rendering:geometricPrecision; text-rendering:geometricPrecision; image-rendering:optimizeQuality; fill-rule:evenodd; clip-rule:evenodd" xmlns:xlink="http://www.w3.org/1999/xlink">
<g><path style="opacity:1" fill="#000000" d="M 32.5,-0.5 C 97.1667,-0.5 161.833,-0.5 226.5,-0.5C 243.606,4.93872 254.606,16.272 259.5,33.5C 259.5,97.1667 259.5,160.833 259.5,224.5C 254.167,242.5 242.5,254.167 224.5,259.5C 161.167,259.5 97.8333,259.5 34.5,259.5C 15.6192,253.953 3.95258,241.62 -0.5,222.5C -0.5,160.5 -0.5,98.5 -0.5,36.5C 3.83216,18.1379 14.8322,5.80453 32.5,-0.5 Z"/></g>
<g><path style="opacity:1" fill="#47ef24" d="M 144.5,196.5 C 144.175,188.981 144.508,181.648 145.5,174.5C 155.588,183.041 167.255,188.041 180.5,189.5C 196.333,190.493 204.833,183.159 206,167.5C 206.5,136.168 206.667,104.835 206.5,73.5C 194.167,73.5 181.833,73.5 169.5,73.5C 169.5,67.8333 169.5,62.1667 169.5,56.5C 188.833,56.5 208.167,56.5 227.5,56.5C 227.667,92.1682 227.5,127.835 227,163.5C 227.036,177.764 221.869,189.597 211.5,199C 206.184,201.994 200.518,203.994 194.5,205C 176.769,207.617 160.102,204.783 144.5,196.5 Z"/></g>
<g><path style="opacity:1" fill="#2da314" d="M 24.5,91.5 C 22.55,96.7351 21.8833,102.402 22.5,108.5C 21.5104,102.69 21.1771,96.69 21.5,90.5C 22.791,90.2627 23.791,90.596 24.5,91.5 Z"/></g>
<g><path style="opacity:1" fill="#47ef24" d="M 24.5,91.5 C 58.1,104.7 91.7667,117.7 125.5,130.5C 125.5,136.5 125.5,142.5 125.5,148.5C 91.7667,161.3 58.1,174.3 24.5,187.5C 22.55,182.265 21.8833,176.598 22.5,170.5C 49.101,160.185 75.7677,149.852 102.5,139.5C 75.7437,129.141 49.077,118.808 22.5,108.5C 21.8833,102.402 22.55,96.7351 24.5,91.5 Z"/></g>
<g><path style="opacity:1" fill="#2da314" d="M 22.5,170.5 C 21.8833,176.598 22.55,182.265 24.5,187.5C 23.791,188.404 22.791,188.737 21.5,188.5C 21.1771,182.31 21.5104,176.31 22.5,170.5 Z"/></g>
<g><path style="opacity:1" fill="#2b9a13" d="M 145.5,174.5 C 144.508,181.648 144.175,188.981 144.5,196.5C 143.18,188.99 143.18,181.323 144.5,173.5C 145.107,173.624 145.44,173.957 145.5,174.5 Z"/></g>
</svg>
